<svg width="48" height="48" viewBox="0 0 48 48" fill="none" xmlns="http://www.w3.org/2000/svg">
<path d="M24 1.2C11.4326 1.2 1.19995 11.4235 1.19995 24C1.19995 36.5765 11.4326 46.8 24 46.8C36.5765 46.8 46.8 36.5765 46.8 24C46.8 11.4235 36.5765 1.2 24 1.2ZM36.5947 26.8272C36.5947 27.3288 36.1843 27.7392 35.6827 27.7392H27.7392V35.6827C27.7392 36.1844 27.3288 36.5947 26.8272 36.5947H21.1728C20.6712 36.5947 20.2608 36.1844 20.2608 35.6827V27.7392H12.3264C11.8156 27.7392 11.4144 27.3288 11.4144 26.8272V21.1728C11.4144 20.6712 11.8156 20.2608 12.3264 20.2608H20.2608V12.3173C20.2608 11.8157 20.6712 11.4053 21.1728 11.4053H26.8272C27.3288 11.4053 27.7392 11.8157 27.7392 12.3173V20.2608H35.6827C36.1843 20.2608 36.5947 20.6712 36.5947 21.1728V26.8272Z" fill="#176AE5"/>
</svg>
