<svg width="25" height="24" viewBox="0 0 25 24" fill="none" xmlns="http://www.w3.org/2000/svg">
<path fill-rule="evenodd" clip-rule="evenodd" d="M12.5 3.75C7.94365 3.75 4.25 7.44365 4.25 12C4.25 16.5563 7.94365 20.25 12.5 20.25C17.0563 20.25 20.75 16.5563 20.75 12C20.75 7.44365 17.0563 3.75 12.5 3.75ZM2.75 12C2.75 6.61522 7.11522 2.25 12.5 2.25C17.8848 2.25 22.25 6.61522 22.25 12C22.25 17.3848 17.8848 21.75 12.5 21.75C7.11522 21.75 2.75 17.3848 2.75 12Z" fill="#0F0F0F" fill-opacity="0.7"/>
<path fill-rule="evenodd" clip-rule="evenodd" d="M9.5 8.25C9.5 7.83578 9.83578 7.5 10.25 7.5H13.25C14.0457 7.5 14.8087 7.81605 15.3713 8.3787C15.9339 8.94128 16.25 9.70432 16.25 10.5C16.25 11.2957 15.9339 12.0587 15.3713 12.6213C14.8087 13.1839 14.0457 13.5 13.25 13.5H11V15.75C11 16.1642 10.6642 16.5 10.25 16.5C9.83578 16.5 9.5 16.1642 9.5 15.75V8.25ZM11 12H13.25C13.6478 12 14.0293 11.842 14.3106 11.5606C14.592 11.2793 14.75 10.8978 14.75 10.5C14.75 10.1022 14.592 9.72068 14.3106 9.43935C14.0293 9.15803 13.6478 9 13.25 9H11V12Z" fill="#0F0F0F" fill-opacity="0.7"/>
<path fill-rule="evenodd" clip-rule="evenodd" d="M12.9707 12.1255C13.3104 11.8885 13.778 11.9716 14.015 12.3113L16.115 15.3207C16.352 15.6604 16.2689 16.1279 15.9291 16.365C15.5894 16.602 15.122 16.5188 14.8849 16.1791L12.7849 13.1698C12.5479 12.83 12.6311 12.3625 12.9707 12.1255Z" fill="#0F0F0F" fill-opacity="0.7"/>
</svg>
