<svg width="65" height="64" viewBox="0 0 65 64" fill="none" xmlns="http://www.w3.org/2000/svg">
<path d="M47.555 55.8299C46.78 56.6099 45.765 57.1649 44.595 57.3699L37.925 58.5349L36.86 58.7199L35.505 58.9549C35.49 58.9549 35.475 58.9599 35.46 58.9599L15.535 62.4299C12.54 62.9499 9.68998 60.9449 9.16998 57.9499L2.06998 17.1349C2.05998 17.0899 2.05498 17.0649 2.05498 17.0649C1.53498 14.0749 3.53998 11.2249 6.53498 10.7049L35.595 5.64992C38.59 5.12492 41.435 7.12992 41.96 10.1249L43.975 21.7099L45.34 29.5549L45.35 29.6299L46.03 33.5349L46.635 37.0049L46.81 38.0199L49.07 51.0099C49.39 52.8349 48.77 54.6049 47.555 55.8299Z" fill="#51528C"/>
<path d="M45.3501 29.63L41.8401 31.285L40.3501 31.99L38.8051 33.96C38.7051 34.085 38.5601 34.15 38.4101 34.15C38.3001 34.15 38.1951 34.115 38.1001 34.045C37.8851 33.87 37.8451 33.56 38.0201 33.34L39.5601 31.375L40.6851 25.9L43.9751 21.71L45.3401 29.555L45.3501 29.63Z" fill="#303256"/>
<path d="M47.555 55.83C46.78 56.61 45.765 57.165 44.595 57.37L37.925 58.535C36.1 56.365 35 53.555 35 50.5C35 43.825 40.225 38.375 46.81 38.02L49.07 51.01C49.39 52.835 48.77 54.605 47.555 55.83Z" fill="#303256"/>
<path d="M45.12 52.985C44.735 53.53 44.16 53.895 43.505 54.01L35.965 55.32L34.735 55.535L15.425 58.895C15.28 58.92 15.135 58.93 14.99 58.93C14.48 58.93 13.985 58.775 13.56 58.475C13.01 58.09 12.65 57.515 12.535 56.86L5.58999 16.96C5.47499 16.3 5.62499 15.64 6.00999 15.09C6.39499 14.545 6.96999 14.18 7.62499 14.065L35.705 9.18003C36.36 9.07003 37.025 9.21503 37.57 9.60003C38.115 9.98503 38.48 10.56 38.595 11.215L41.065 25.415L41.225 26.325V26.33L42.07 31.175L43.16 37.435L43.38 38.7L45.54 51.115C45.655 51.775 45.505 52.44 45.12 52.985Z" fill="#ECEAFD"/>
<path d="M41.2251 26.325L40.7051 25.92C40.6901 25.905 40.6851 25.9 40.6851 25.9L41.0651 25.415L41.2251 26.325Z" fill="#C3C0FD"/>
<path d="M42.0701 31.1751L41.8401 31.2851L40.3501 31.9901L38.8051 33.9601C38.7051 34.0851 38.5601 34.1501 38.4101 34.1501C38.3001 34.1501 38.1951 34.1151 38.1001 34.0451C37.8851 33.8701 37.8451 33.5601 38.0201 33.3401L39.5601 31.3751L40.6851 25.9001C40.6851 25.9001 40.6901 25.9051 40.7051 25.9201L41.2251 26.3251V26.3301L42.0701 31.1751Z" fill="#C3C0FD"/>
<path d="M45.12 52.985C44.735 53.53 44.16 53.8949 43.505 54.0099L35.965 55.32C35.345 53.835 35 52.21 35 50.5C35 45.04 38.5 40.4 43.38 38.7L45.54 51.115C45.655 51.775 45.505 52.44 45.12 52.985Z" fill="#C3C0FD"/>
<path d="M30.39 13.6599L28.95 13.9099L13.15 16.6599C12.605 16.7549 12.09 16.3899 11.995 15.8449L11.05 10.4249C10.865 9.33988 11.59 8.29988 12.68 8.11488L27.95 5.45488C29.04 5.26488 30.075 5.99488 30.265 7.08488L31.205 12.4999C31.3 13.0449 30.935 13.5649 30.39 13.6599Z" fill="#FAB342"/>
<path d="M24.24 6.11498L15.865 7.57498L15.735 6.83498C15.475 5.32998 16.035 3.87498 17.095 2.93498C17.665 2.42498 18.385 2.05998 19.195 1.91998C19.44 1.87498 19.69 1.85498 19.93 1.85498C21.955 1.85498 23.75 3.30998 24.11 5.37498L24.24 6.11498Z" fill="#FBC96E"/>
<path d="M28.95 13.91L13.15 16.66C12.605 16.755 12.09 16.39 11.995 15.845L11.05 10.425C10.865 9.33999 11.59 8.29999 12.68 8.11499C12.68 8.11499 17.2 16.04 28.95 13.91Z" fill="#EF9A1D"/>
<path d="M24.24 6.11506L15.865 7.57506L15.735 6.83506C15.475 5.33006 16.035 3.87506 17.095 2.93506H17.1C17.1 2.93506 17.305 7.35006 24.24 6.11506Z" fill="#EF9A1D"/>
<path d="M27.1337 9.26909C28.2329 9.11363 29.0614 8.54438 28.9841 7.99762C28.9068 7.45085 27.9529 7.13364 26.8537 7.28909C25.7544 7.44454 24.926 8.01379 25.0033 8.56056C25.0806 9.10732 26.0344 9.42454 27.1337 9.26909Z" fill="#FBC96E"/>
<path d="M23.0244 9.85059C23.5767 9.85059 24.0244 9.40287 24.0244 8.85059C24.0244 8.2983 23.5767 7.85059 23.0244 7.85059C22.4721 7.85059 22.0244 8.2983 22.0244 8.85059C22.0244 9.40287 22.4721 9.85059 23.0244 9.85059Z" fill="#FBC96E"/>
<path d="M39.4951 41.915C39.5401 42.185 39.3551 42.445 39.0851 42.495L37.7051 42.735L16.7751 46.355C16.7451 46.36 16.7201 46.36 16.6901 46.36C16.4501 46.36 16.2401 46.19 16.2001 45.945C16.1501 45.675 16.3351 45.415 16.6051 45.37L38.8101 41.525L38.9151 41.505C39.1901 41.46 39.4451 41.645 39.4951 41.915Z" fill="#51528C"/>
<path d="M39.4951 41.915C39.5401 42.185 39.3551 42.445 39.0851 42.495L37.7051 42.735C38.0451 42.305 38.4151 41.9 38.8101 41.525L38.9151 41.505C39.1901 41.46 39.4451 41.645 39.4951 41.915Z" fill="#303256"/>
<path d="M15.69 41.362C15.4505 41.362 15.239 41.1895 15.1975 40.9455C15.1515 40.6735 15.3345 40.415 15.607 40.369L38.4165 36.507C38.687 36.4585 38.947 36.644 38.993 36.9165C39.039 37.1885 38.856 37.447 38.5835 37.493L15.774 41.355C15.7455 41.3595 15.718 41.362 15.69 41.362Z" fill="#51528C"/>
<path d="M17.9995 51.4749C17.7605 51.4749 17.55 51.3039 17.5075 51.0604C17.46 50.7884 17.6425 50.5294 17.914 50.4819L28.689 48.6069C28.9645 48.5604 29.22 48.7419 29.2675 49.0139C29.315 49.2859 29.1325 49.5449 28.861 49.5924L18.086 51.4674C18.0565 51.4724 18.028 51.4749 17.9995 51.4749Z" fill="#51528C"/>
<path d="M33.0744 25.6495C33.4444 28.046 32.7759 30.3655 31.3959 32.142C30.1109 33.8125 28.2149 35.001 25.9714 35.3475C23.7279 35.694 21.5619 35.133 19.8329 33.928C17.9814 32.6505 16.6439 30.641 16.2739 28.2445C15.5574 23.6045 18.7369 19.2635 23.3769 18.5465C28.0164 17.8295 32.3579 21.0095 33.0744 25.6495Z" fill="#95C2AC"/>
<path d="M24.5215 29.4585C26.4545 29.4585 28.0215 27.8915 28.0215 25.9585C28.0215 24.0255 26.4545 22.4585 24.5215 22.4585C22.5885 22.4585 21.0215 24.0255 21.0215 25.9585C21.0215 27.8915 22.5885 29.4585 24.5215 29.4585Z" fill="#33907C"/>
<path d="M31.396 32.1416C30.111 33.8121 28.215 35.0006 25.9715 35.3471C23.728 35.6936 21.562 35.1326 19.833 33.9276C20.545 31.6271 22.516 29.8096 25.056 29.4176C27.5955 29.0251 30.0225 30.1631 31.396 32.1416Z" fill="#33907C"/>
<path d="M49.5 61.5C56.4036 61.5 62 55.9036 62 49C62 42.0964 56.4036 36.5 49.5 36.5C42.5964 36.5 37 42.0964 37 49C37 55.9036 42.5964 61.5 49.5 61.5Z" fill="#F66AA3"/>
<path d="M51.5 59.5C44.5965 59.5 39 53.9035 39 47C39 44.058 40.019 41.3555 41.72 39.22C38.845 41.51 37 45.0385 37 49C37 55.9035 42.5965 61.5 49.5 61.5C53.4615 61.5 56.99 59.655 59.28 56.78C57.1445 58.481 54.442 59.5 51.5 59.5Z" fill="#F04084"/>
<path d="M56 46.5H52V42.5C52 42.224 51.776 42 51.5 42H47.5C47.224 42 47 42.224 47 42.5V46.5H43C42.724 46.5 42.5 46.724 42.5 47V51C42.5 51.276 42.724 51.5 43 51.5H47V55.5C47 55.776 47.224 56 47.5 56H51.5C51.776 56 52 55.776 52 55.5V51.5H56C56.276 51.5 56.5 51.276 56.5 51V47C56.5 46.724 56.276 46.5 56 46.5Z" fill="#ECEAFD"/>
<path d="M44.4026 28.6039L39.6836 24.8984L54.5066 6.02289C54.8476 5.58839 55.4761 5.51289 55.9106 5.85389L59.0566 8.32439C59.4911 8.66539 59.5666 9.29389 59.2256 9.72839L44.4026 28.6039Z" fill="#5A7AED"/>
<path d="M48.05 23.96C54.765 14.695 52.96 7.98999 52.96 7.98999L57.68 11.695L48.05 23.96Z" fill="#3762DB"/>
<path d="M59.0559 8.32439L55.9099 5.85389L57.1449 4.28089C57.8269 3.41239 59.0844 3.26089 59.9529 3.94339C60.8214 4.62539 60.9729 5.88289 60.2904 6.75139L59.0559 8.32439Z" fill="#51528C"/>
<path d="M37.4099 33.1495C37.3019 33.1495 37.1929 33.1145 37.1019 33.043C36.8844 32.8725 36.8464 32.558 37.0174 32.341L38.5614 30.3745C38.7319 30.1575 39.0459 30.1195 39.2629 30.29C39.4804 30.4605 39.5184 30.775 39.3474 30.992L37.8034 32.9585C37.7049 33.084 37.5584 33.1495 37.4099 33.1495Z" fill="#BCDDFF"/>
<path d="M44.4001 28.6049L40.8401 30.2849L39.3501 30.9899L38.5601 30.3749L39.6851 24.8999C39.6851 24.8999 39.6901 24.9049 39.7051 24.9199L44.4001 28.6049Z" fill="#3762DB"/>
<path d="M53.5 24.805C53.2895 24.805 53.094 24.671 53.025 24.4605C52.621 23.229 52.8575 21.885 53.6585 20.865L58.4125 14.8115C58.7425 14.3915 58.889 13.868 58.825 13.3375C58.7615 12.807 58.495 12.3335 58.075 12.0035L52.9625 7.98897C52.745 7.81847 52.707 7.50397 52.878 7.28697C53.0485 7.07047 53.363 7.03197 53.5795 7.20247L58.692 11.217C59.3225 11.712 59.7225 12.423 59.818 13.218C59.9135 14.0135 59.6935 14.799 59.1985 15.429L54.4445 21.4825C53.851 22.2385 53.6755 23.235 53.9755 24.149C54.0615 24.411 53.919 24.6935 53.656 24.78C53.604 24.797 53.552 24.805 53.5 24.805Z" fill="#51528C"/>
<path d="M51.8149 19.165L48.0299 23.985L48.0249 23.99L46.2549 26.245L41.5349 22.54L47.0949 15.46L51.1699 18.66L51.8149 19.165Z" fill="#ECEAFD"/>
<path d="M51.815 19.1649L48.03 23.9849C49.405 22.0899 50.425 20.3049 51.17 18.6599L51.815 19.1649Z" fill="#C3C0FD"/>
</svg>
