<svg width="65" height="64" viewBox="0 0 65 64" fill="none" xmlns="http://www.w3.org/2000/svg">
<path d="M32.5 14.7201L34.974 19.6841C35.0025 19.7419 35.0448 19.7918 35.0971 19.8295C35.1494 19.8671 35.2101 19.8914 35.274 19.9001L40.804 20.7001C40.8771 20.7101 40.9459 20.7404 41.0025 20.7877C41.0592 20.8349 41.1014 20.8971 41.1244 20.9672C41.1473 21.0373 41.1501 21.1125 41.1323 21.1841C41.1146 21.2557 41.077 21.3208 41.024 21.3721L37.024 25.2371C36.9777 25.2815 36.9431 25.3365 36.923 25.3973C36.903 25.4581 36.8982 25.523 36.909 25.5861L37.854 31.0421C37.8649 31.1148 37.8556 31.1891 37.8271 31.2568C37.7986 31.3245 37.752 31.3831 37.6924 31.4261C37.6327 31.4691 37.5624 31.4948 37.4892 31.5005C37.4159 31.5061 37.3425 31.4914 37.277 31.4581L32.331 28.8821C32.2739 28.8523 32.2104 28.8368 32.146 28.8368C32.0816 28.8368 32.0181 28.8523 31.961 28.8821L27.015 31.4581C26.9495 31.4914 26.8761 31.5061 26.8028 31.5005C26.7295 31.4948 26.6592 31.4691 26.5996 31.4261C26.54 31.3831 26.4934 31.3245 26.4648 31.2568C26.4363 31.1891 26.427 31.1148 26.438 31.0421L27.382 25.5861C27.393 25.5231 27.3884 25.4583 27.3685 25.3974C27.3486 25.3365 27.3141 25.2815 27.268 25.2371L23.268 21.3721C23.2149 21.3208 23.1774 21.2555 23.1597 21.1839C23.142 21.1122 23.1448 21.037 23.1679 20.9668C23.1909 20.8967 23.2333 20.8345 23.2901 20.7873C23.3469 20.7401 23.4158 20.7099 23.489 20.7001L29.019 19.9001C29.0827 19.8909 29.1432 19.8665 29.1954 19.8288C29.2476 19.7912 29.29 19.7416 29.319 19.6841L31.792 14.7201C31.8259 14.6556 31.8768 14.6016 31.9392 14.5639C32.0016 14.5263 32.0731 14.5063 32.146 14.5063C32.2189 14.5063 32.2903 14.5263 32.3527 14.5639C32.4151 14.6016 32.466 14.6556 32.5 14.7201Z" fill="#FFC107"/>
<path d="M41.0221 21.368C41.0751 21.3168 41.1127 21.2516 41.1304 21.18C41.1482 21.1084 41.1454 21.0332 41.1225 20.9631C41.0995 20.893 41.0573 20.8308 41.0006 20.7836C40.944 20.7363 40.8752 20.706 40.8021 20.696L35.2721 19.896C35.2082 19.8873 35.1475 19.863 35.0952 19.8254C35.0429 19.7877 35.0006 19.7378 34.9721 19.68L32.5001 14.72C32.4674 14.6534 32.4165 14.5974 32.3534 14.5584C32.2902 14.5195 32.2173 14.4992 32.1431 14.5V28.832C32.2076 28.8319 32.2711 28.8477 32.3281 28.878L37.2741 31.454C37.3396 31.4874 37.413 31.502 37.4863 31.4964C37.5595 31.4907 37.6298 31.465 37.6895 31.422C37.7491 31.379 37.7957 31.3205 37.8242 31.2527C37.8527 31.185 37.862 31.1107 37.8511 31.038L36.9061 25.582C36.8953 25.5189 36.9001 25.4541 36.9201 25.3932C36.9402 25.3324 36.9748 25.2774 37.0211 25.233L41.0221 21.368Z" fill="#FFA000"/>
<path d="M13.5 14.7201L15.974 19.6841C16.0026 19.7419 16.0448 19.7918 16.0971 19.8295C16.1494 19.8671 16.2102 19.8914 16.274 19.9001L21.804 20.7001C21.8771 20.7101 21.9459 20.7404 22.0026 20.7877C22.0593 20.8349 22.1015 20.8971 22.1244 20.9672C22.1474 21.0373 22.1501 21.1125 22.1324 21.1841C22.1146 21.2557 22.0771 21.3209 22.024 21.3721L18.024 25.2371C17.9778 25.2815 17.9432 25.3365 17.9231 25.3973C17.9031 25.4582 17.8982 25.523 17.909 25.5861L18.854 31.0421C18.865 31.1148 18.8557 31.1891 18.8272 31.2568C18.7987 31.3246 18.752 31.3831 18.6924 31.4261C18.6328 31.4691 18.5625 31.4948 18.4892 31.5005C18.416 31.5061 18.3425 31.4915 18.277 31.4581L13.331 28.8821C13.2739 28.8523 13.2105 28.8368 13.146 28.8368C13.0816 28.8368 13.0182 28.8523 12.961 28.8821L8.01204 31.4541C7.94654 31.4875 7.87313 31.5021 7.79985 31.4965C7.72658 31.4908 7.65627 31.4651 7.59666 31.4221C7.53704 31.3791 7.49042 31.3206 7.46191 31.2528C7.4334 31.1851 7.4241 31.1108 7.43504 31.0381L8.37904 25.5821C8.39006 25.5191 8.38543 25.4543 8.36555 25.3934C8.34567 25.3326 8.31116 25.2775 8.26504 25.2331L4.26504 21.3681C4.21197 21.3168 4.17444 21.2516 4.15673 21.1799C4.13903 21.1082 4.14187 21.033 4.16493 20.9629C4.188 20.8927 4.23035 20.8305 4.28714 20.7833C4.34393 20.7362 4.41287 20.7059 4.48604 20.6961L10.016 19.8961C10.0797 19.8869 10.1403 19.8625 10.1925 19.8249C10.2447 19.7873 10.2871 19.7376 10.316 19.6801L12.789 14.7161C12.8231 14.651 12.8744 14.5966 12.9373 14.5587C13.0002 14.5209 13.0723 14.5011 13.1458 14.5015C13.2192 14.5019 13.2911 14.5225 13.3536 14.5611C13.4161 14.5996 13.4667 14.6547 13.5 14.7201Z" fill="#FFC107"/>
<path d="M22.0221 21.368C22.0751 21.3168 22.1127 21.2516 22.1304 21.18C22.1482 21.1084 22.1454 21.0332 22.1225 20.9631C22.0995 20.893 22.0573 20.8308 22.0006 20.7836C21.944 20.7363 21.8752 20.706 21.8021 20.696L16.2721 19.896C16.2082 19.8873 16.1475 19.863 16.0952 19.8254C16.0429 19.7877 16.0006 19.7378 15.9721 19.68L13.5001 14.72C13.4674 14.6534 13.4165 14.5974 13.3534 14.5584C13.2902 14.5195 13.2173 14.4992 13.1431 14.5V28.832C13.2076 28.8319 13.2711 28.8477 13.3281 28.878L18.2741 31.454C18.3396 31.4874 18.413 31.502 18.4863 31.4964C18.5595 31.4907 18.6298 31.465 18.6894 31.422C18.7491 31.379 18.7957 31.3205 18.8242 31.2527C18.8527 31.185 18.862 31.1107 18.8511 31.038L17.9061 25.582C17.8953 25.5189 17.9001 25.4541 17.9201 25.3932C17.9402 25.3324 17.9748 25.2774 18.0211 25.233L22.0221 21.368Z" fill="#FFA000"/>
<path d="M51.5 14.7201L53.974 19.6841C54.0025 19.7419 54.0448 19.7918 54.0971 19.8295C54.1494 19.8671 54.2101 19.8914 54.274 19.9001L59.804 20.7001C59.8771 20.7101 59.9459 20.7404 60.0025 20.7877C60.0592 20.8349 60.1014 20.8971 60.1244 20.9672C60.1473 21.0373 60.1501 21.1125 60.1323 21.1841C60.1146 21.2557 60.077 21.3208 60.024 21.3721L56.024 25.2371C55.9777 25.2815 55.9431 25.3365 55.923 25.3973C55.903 25.4581 55.8982 25.523 55.909 25.5861L56.854 31.0421C56.8649 31.1148 56.8556 31.1891 56.8271 31.2568C56.7986 31.3245 56.752 31.3831 56.6924 31.4261C56.6327 31.4691 56.5624 31.4948 56.4892 31.5005C56.4159 31.5061 56.3425 31.4914 56.277 31.4581L51.331 28.8821C51.2739 28.8523 51.2104 28.8368 51.146 28.8368C51.0816 28.8368 51.0181 28.8523 50.961 28.8821L46.015 31.4581C45.9495 31.4914 45.8761 31.5061 45.8028 31.5005C45.7295 31.4948 45.6592 31.4691 45.5996 31.4261C45.54 31.3831 45.4934 31.3245 45.4648 31.2568C45.4363 31.1891 45.427 31.1148 45.438 31.0421L46.382 25.5861C46.393 25.5231 46.3884 25.4583 46.3685 25.3974C46.3486 25.3365 46.3141 25.2815 46.268 25.2371L42.268 21.3721C42.2149 21.3208 42.1774 21.2555 42.1597 21.1839C42.142 21.1122 42.1448 21.037 42.1679 20.9668C42.1909 20.8967 42.2333 20.8345 42.2901 20.7873C42.3469 20.7401 42.4158 20.7099 42.489 20.7001L48.019 19.9001C48.0827 19.8909 48.1432 19.8665 48.1954 19.8288C48.2476 19.7912 48.29 19.7416 48.319 19.6841L50.792 14.7201C50.8259 14.6556 50.8768 14.6016 50.9392 14.5639C51.0016 14.5263 51.0731 14.5063 51.146 14.5063C51.2189 14.5063 51.2903 14.5263 51.3527 14.5639C51.4151 14.6016 51.466 14.6556 51.5 14.7201Z" fill="#FFC107"/>
<path d="M60.0221 21.368C60.0751 21.3168 60.1127 21.2516 60.1304 21.18C60.1482 21.1084 60.1454 21.0332 60.1225 20.9631C60.0995 20.893 60.0573 20.8308 60.0006 20.7836C59.944 20.7363 59.8752 20.706 59.8021 20.696L54.2721 19.896C54.2082 19.8873 54.1475 19.863 54.0952 19.8254C54.0429 19.7877 54.0006 19.7378 53.9721 19.68L51.5001 14.72C51.4674 14.6534 51.4165 14.5974 51.3534 14.5584C51.2902 14.5195 51.2173 14.4992 51.1431 14.5V28.832C51.2076 28.8319 51.2711 28.8477 51.3281 28.878L56.2741 31.454C56.3396 31.4874 56.413 31.502 56.4863 31.4964C56.5595 31.4907 56.6298 31.465 56.6894 31.422C56.7491 31.379 56.7957 31.3205 56.8242 31.2527C56.8527 31.185 56.862 31.1107 56.8511 31.038L55.9061 25.582C55.8953 25.5189 55.9001 25.4541 55.9201 25.3932C55.9402 25.3324 55.9748 25.2774 56.0211 25.233L60.0221 21.368Z" fill="#FFA000"/>
<path d="M23 32.7201L25.474 37.6841C25.5025 37.7419 25.5448 37.7918 25.5971 37.8295C25.6494 37.8671 25.7101 37.8914 25.774 37.9001L31.304 38.7001C31.3771 38.7101 31.4459 38.7404 31.5025 38.7877C31.5592 38.8349 31.6014 38.8971 31.6244 38.9672C31.6473 39.0373 31.6501 39.1125 31.6323 39.1841C31.6146 39.2557 31.577 39.3208 31.524 39.3721L27.524 43.2371C27.4777 43.2815 27.4431 43.3365 27.423 43.3973C27.403 43.4581 27.3982 43.523 27.409 43.5861L28.354 49.0421C28.3649 49.1148 28.3556 49.1891 28.3271 49.2568C28.2986 49.3245 28.252 49.3831 28.1924 49.4261C28.1327 49.4691 28.0624 49.4948 27.9892 49.5005C27.9159 49.5061 27.8425 49.4914 27.777 49.4581L22.831 46.8821C22.7739 46.8523 22.7104 46.8368 22.646 46.8368C22.5816 46.8368 22.5181 46.8523 22.461 46.8821L17.515 49.4581C17.4495 49.4914 17.3761 49.5061 17.3028 49.5005C17.2295 49.4948 17.1592 49.4691 17.0996 49.4261C17.04 49.3831 16.9934 49.3245 16.9648 49.2568C16.9363 49.1891 16.927 49.1148 16.938 49.0421L17.882 43.5861C17.893 43.523 17.8884 43.4583 17.8685 43.3974C17.8486 43.3365 17.8141 43.2815 17.768 43.2371L13.768 39.3721C13.7149 39.3208 13.6774 39.2555 13.6597 39.1839C13.642 39.1122 13.6448 39.037 13.6679 38.9669C13.6909 38.8967 13.7333 38.8345 13.7901 38.7873C13.8469 38.7401 13.9158 38.7099 13.989 38.7001L19.519 37.9001C19.5827 37.8909 19.6432 37.8664 19.6954 37.8288C19.7476 37.7912 19.79 37.7416 19.819 37.6841L22.292 32.7201C22.3259 32.6556 22.3768 32.6016 22.4392 32.5639C22.5016 32.5263 22.5731 32.5063 22.646 32.5063C22.7189 32.5063 22.7903 32.5263 22.8527 32.5639C22.9151 32.6016 22.966 32.6556 23 32.7201Z" fill="#FFC107"/>
<path d="M31.5221 39.368C31.5751 39.3168 31.6127 39.2516 31.6304 39.18C31.6482 39.1084 31.6454 39.0332 31.6225 38.9631C31.5995 38.893 31.5573 38.8308 31.5006 38.7836C31.444 38.7363 31.3752 38.706 31.3021 38.696L25.7721 37.896C25.7082 37.8873 25.6475 37.863 25.5952 37.8254C25.5429 37.7877 25.5006 37.7378 25.4721 37.68L23.0001 32.72C22.9674 32.6534 22.9165 32.5974 22.8534 32.5584C22.7902 32.5195 22.7173 32.4992 22.6431 32.5V46.832C22.7076 46.8319 22.7711 46.8477 22.8281 46.878L27.7741 49.454C27.8396 49.4874 27.913 49.502 27.9863 49.4964C28.0595 49.4907 28.1298 49.465 28.1894 49.422C28.2491 49.379 28.2957 49.3205 28.3242 49.2527C28.3527 49.185 28.362 49.1107 28.3511 49.038L27.4061 43.582C27.3953 43.5189 27.4001 43.4541 27.4201 43.3932C27.4402 43.3324 27.4748 43.2774 27.5211 43.233L31.5221 39.368Z" fill="#FFA000"/>
<path d="M42 32.7201L44.474 37.6841C44.5025 37.7419 44.5448 37.7918 44.5971 37.8295C44.6494 37.8671 44.7101 37.8914 44.774 37.9001L50.304 38.7001C50.3771 38.7101 50.4459 38.7404 50.5025 38.7877C50.5592 38.8349 50.6014 38.8971 50.6244 38.9672C50.6473 39.0373 50.6501 39.1125 50.6323 39.1841C50.6146 39.2557 50.577 39.3208 50.524 39.3721L46.524 43.2371C46.4777 43.2815 46.4431 43.3365 46.423 43.3973C46.403 43.4581 46.3982 43.523 46.409 43.5861L47.354 49.0421C47.3649 49.1148 47.3556 49.1891 47.3271 49.2568C47.2986 49.3245 47.252 49.3831 47.1924 49.4261C47.1327 49.4691 47.0624 49.4948 46.9892 49.5005C46.9159 49.5061 46.8425 49.4914 46.777 49.4581L41.831 46.8821C41.7739 46.8523 41.7104 46.8368 41.646 46.8368C41.5816 46.8368 41.5181 46.8523 41.461 46.8821L36.515 49.4581C36.4495 49.4914 36.3761 49.5061 36.3028 49.5005C36.2295 49.4948 36.1592 49.4691 36.0996 49.4261C36.04 49.3831 35.9934 49.3245 35.9648 49.2568C35.9363 49.1891 35.927 49.1148 35.938 49.0421L36.882 43.5861C36.893 43.523 36.8884 43.4583 36.8685 43.3974C36.8486 43.3365 36.8141 43.2815 36.768 43.2371L32.768 39.3721C32.7149 39.3208 32.6774 39.2555 32.6597 39.1839C32.642 39.1122 32.6448 39.037 32.6679 38.9669C32.6909 38.8967 32.7333 38.8345 32.7901 38.7873C32.8469 38.7401 32.9158 38.7099 32.989 38.7001L38.519 37.9001C38.5827 37.8909 38.6432 37.8664 38.6954 37.8288C38.7476 37.7912 38.79 37.7416 38.819 37.6841L41.292 32.7201C41.3259 32.6556 41.3768 32.6016 41.4392 32.5639C41.5016 32.5263 41.5731 32.5063 41.646 32.5063C41.7189 32.5063 41.7903 32.5263 41.8527 32.5639C41.9151 32.6016 41.966 32.6556 42 32.7201Z" fill="#FFC107"/>
<path d="M50.5221 39.368C50.5751 39.3168 50.6127 39.2516 50.6304 39.18C50.6482 39.1084 50.6454 39.0332 50.6225 38.9631C50.5995 38.893 50.5573 38.8308 50.5006 38.7836C50.444 38.7363 50.3752 38.706 50.3021 38.696L44.7721 37.896C44.7082 37.8873 44.6475 37.863 44.5952 37.8254C44.5429 37.7877 44.5006 37.7378 44.4721 37.68L42.0001 32.72C41.9674 32.6534 41.9165 32.5974 41.8534 32.5584C41.7902 32.5195 41.7173 32.4992 41.6431 32.5V46.832C41.7076 46.8319 41.7711 46.8477 41.8281 46.878L46.7741 49.454C46.8396 49.4874 46.913 49.502 46.9863 49.4964C47.0595 49.4907 47.1298 49.465 47.1894 49.422C47.2491 49.379 47.2957 49.3205 47.3242 49.2527C47.3527 49.185 47.362 49.1107 47.3511 49.038L46.4061 43.582C46.3953 43.5189 46.4001 43.4541 46.4201 43.3932C46.4402 43.3324 46.4748 43.2774 46.5211 43.233L50.5221 39.368Z" fill="#FFA000"/>
</svg>
