<svg width="65" height="64" viewBox="0 0 65 64" fill="none" xmlns="http://www.w3.org/2000/svg">
<path d="M25.0999 51.8932C23.3078 53.299 21.9528 55.1858 21.1933 57.3332H1.83325V55.9998C1.83325 44.7332 15.9666 39.8265 22.9533 48.2132C23.8852 49.3001 24.6125 50.5469 25.0999 51.8932Z" fill="#FFCC66"/>
<path d="M25.1 51.8932C24.1029 52.6738 23.2384 53.6103 22.54 54.6666H8.49999C7.91641 54.6326 7.34864 54.4639 6.84113 54.1738C6.33362 53.8837 5.90017 53.4801 5.57472 52.9945C5.24927 52.5089 5.04067 51.9546 4.96524 51.3749C4.88982 50.7952 4.94963 50.206 5.13999 49.6533C5.37523 48.922 5.68345 48.2162 6.05999 47.5466C6.24714 47.0709 6.53101 46.6392 6.89364 46.2788C7.25627 45.9185 7.68975 45.6374 8.16665 45.4533C15.1667 41.5866 23.66 46.1199 25.1 51.8932Z" fill="#FFDE76"/>
<path d="M19.1666 36C19.1666 40 19.4199 41.3333 18.2066 43.04C17.7616 43.6805 17.1816 44.2157 16.5074 44.6077C15.8332 44.9998 15.0812 45.2392 14.3045 45.3091C13.5277 45.3791 12.7451 45.2778 12.0117 45.0124C11.2783 44.7471 10.6121 44.3241 10.0599 43.7733C8.08656 41.7733 8.4999 39.6933 8.4999 36C10.4599 36.8133 13.6599 37.5067 15.1666 36C15.4254 35.7306 15.7359 35.5162 16.0796 35.3698C16.4233 35.2234 16.793 35.1479 17.1666 35.1479C17.5401 35.1479 17.9098 35.2234 18.2535 35.3698C18.5972 35.5162 18.9078 35.7306 19.1666 36Z" fill="#F6CCAF"/>
<path d="M19.1665 36C19.1665 40 19.4198 41.3333 18.2065 43.04C17.1806 43.7544 15.9363 44.0856 14.691 43.976C13.4457 43.8663 12.2784 43.3227 11.3931 42.44C9.59315 40.6133 9.83315 38.7867 9.83315 36.4667C11.3665 36.8933 13.8331 37.32 15.1665 36C15.4253 35.7306 15.7358 35.5162 16.0795 35.3698C16.4232 35.2234 16.7929 35.1479 17.1665 35.1479C17.54 35.1479 17.9098 35.2234 18.2534 35.3698C18.5971 35.5162 18.9077 35.7306 19.1665 36Z" fill="#FFDEC7"/>
<path d="M19.1667 35.9998C18.9079 35.7304 18.5973 35.5161 18.2536 35.3697C17.91 35.2233 17.5402 35.1478 17.1667 35.1478C16.7931 35.1478 16.4234 35.2233 16.0797 35.3697C15.736 35.5161 15.4255 35.7304 15.1667 35.9998C13.1667 37.9998 8.5 35.9998 8.5 35.9998C8.5 34.5853 9.0619 33.2288 10.0621 32.2286C11.0623 31.2284 12.4188 30.6665 13.8333 30.6665C15.2478 30.6665 16.6044 31.2284 17.6046 32.2286C18.6048 33.2288 19.1667 34.5853 19.1667 35.9998Z" fill="#374F68"/>
<path d="M44.4998 61.3332V62.6666H20.4998C20.3754 60.8604 20.6111 59.0475 21.1932 57.3332C22.1403 54.6693 23.9975 52.4254 26.4374 50.9971C28.8773 49.5687 31.7432 49.0477 34.5297 49.526C37.3162 50.0042 39.8443 51.4509 41.6684 53.6111C43.4924 55.7712 44.4952 58.506 44.4998 61.3332Z" fill="#DB5669"/>
<path d="M44.4998 61.3332V62.6666H20.4998C20.3754 60.8604 20.6111 59.0475 21.1932 57.3332C22.1403 54.6693 23.9975 52.4254 26.4374 50.9971C28.8773 49.5687 31.7432 49.0477 34.5297 49.526C37.3162 50.0042 39.8443 51.4509 41.6684 53.6111C43.4924 55.7712 44.4952 58.506 44.4998 61.3332Z" fill="#DB5669"/>
<path d="M22.54 54.6665C21.9833 55.4946 21.5351 56.3909 21.2067 57.3332H18.54C18.8685 56.3909 19.3166 55.4946 19.8734 54.6665H22.54Z" fill="#FFBA55"/>
<path d="M25.1 51.8932C21.0333 55.0932 24.5 54.6666 19.8733 54.6666C21.0276 52.918 22.6238 51.5058 24.5 50.5732C24.7327 50.9976 24.9333 51.4388 25.1 51.8932Z" fill="#FFCC66"/>
<path d="M44.42 60C20.8067 60 28.82 60 27.0867 60C26.5031 59.966 25.9353 59.7973 25.4278 59.5072C24.9203 59.2172 24.4868 58.8135 24.1614 58.3279C23.8359 57.8423 23.6273 57.288 23.5519 56.7083C23.4765 56.1286 23.5363 55.5394 23.7267 54.9867C24.1239 53.77 24.7087 52.6228 25.46 51.5867C27.1612 50.3565 29.1553 49.5941 31.2433 49.3757C33.3313 49.1573 35.4401 49.4904 37.359 50.342C39.2779 51.1935 40.9399 52.5335 42.1789 54.2283C43.418 55.923 44.1907 57.9132 44.42 60Z" fill="#F26674"/>
<path d="M37.8333 41.3332C37.8333 45.3332 38.0866 46.6666 36.8733 48.3732C36.4284 49.0138 35.8484 49.5489 35.1742 49.941C34.5 50.333 33.748 50.5725 32.9712 50.6424C32.1945 50.7123 31.4118 50.611 30.6784 50.3457C29.9451 50.0803 29.2788 49.6573 28.7266 49.1066C26.7533 47.1066 27.1666 45.0266 27.1666 41.3332C29.1266 42.1466 32.3266 42.8399 33.8333 41.3332C34.0921 41.0638 34.4027 40.8495 34.7463 40.7031C35.09 40.5567 35.4597 40.4812 35.8333 40.4812C36.2069 40.4812 36.5766 40.5567 36.9203 40.7031C37.264 40.8495 37.5745 41.0638 37.8333 41.3332Z" fill="#F6CCAF"/>
<path d="M37.8332 41.3332C37.8332 45.3332 38.0866 46.6666 36.8732 48.3732C35.8473 49.0876 34.603 49.4189 33.3577 49.3092C32.1124 49.1996 30.9452 48.6559 30.0599 47.7732C28.2599 45.9466 28.4999 44.1199 28.4999 41.7999C30.0332 42.2266 32.4999 42.6532 33.8332 41.3332C34.092 41.0638 34.4026 40.8495 34.7463 40.7031C35.0899 40.5567 35.4597 40.4812 35.8332 40.4812C36.2068 40.4812 36.5765 40.5567 36.9202 40.7031C37.2639 40.8495 37.5744 41.0638 37.8332 41.3332Z" fill="#FFDEC7"/>
<path d="M37.8332 41.3333C37.5744 41.0639 37.2638 40.8496 36.9201 40.7032C36.5765 40.5568 36.2067 40.4813 35.8332 40.4813C35.4596 40.4813 35.0899 40.5568 34.7462 40.7032C34.4025 40.8496 34.092 41.0639 33.8332 41.3333C31.8332 43.3333 27.1665 41.3333 27.1665 41.3333C27.1665 39.9188 27.7284 38.5623 28.7286 37.5621C29.7288 36.5619 31.0853 36 32.4998 36C33.9143 36 35.2709 36.5619 36.2711 37.5621C37.2713 38.5623 37.8332 39.9188 37.8332 41.3333Z" fill="#374F68"/>
<path d="M63.1666 56V57.3334H43.8066C43.047 55.186 41.692 53.2992 39.8999 51.8934C44.4999 39.3867 63.1666 42.5734 63.1666 56Z" fill="#FFCC66"/>
<path d="M63.0865 54.6665C39.4732 54.6665 47.4865 54.6665 45.7532 54.6665C45.1696 54.6325 44.6018 54.4638 44.0943 54.1737C43.5868 53.8837 43.1533 53.48 42.8279 52.9944C42.5024 52.5088 42.2938 51.9545 42.2184 51.3748C42.143 50.7951 42.2028 50.2059 42.3932 49.6532C42.7904 48.4365 43.3753 47.2894 44.1265 46.2532C45.8277 45.023 47.8218 44.2606 49.9098 44.0422C51.9978 43.8238 54.1066 44.1569 56.0255 45.0085C57.9444 45.86 59.6064 47.2 60.8454 48.8948C62.0845 50.5895 62.8572 52.5797 63.0865 54.6665Z" fill="#FFDE76"/>
<path d="M56.4998 36C56.4998 40 56.7531 41.3333 55.5398 43.04C55.0949 43.6805 54.5149 44.2157 53.8407 44.6077C53.1665 44.9998 52.4145 45.2392 51.6377 45.3091C50.861 45.3791 50.0783 45.2778 49.345 45.0124C48.6116 44.7471 47.9453 44.3241 47.3931 43.7733C45.4198 41.7733 45.8331 39.6933 45.8331 36C47.7931 36.8133 50.9931 37.5067 52.4998 36C52.7586 35.7306 53.0692 35.5162 53.4129 35.3698C53.7565 35.2234 54.1262 35.1479 54.4998 35.1479C54.8734 35.1479 55.2431 35.2234 55.5868 35.3698C55.9305 35.5162 56.241 35.7306 56.4998 36Z" fill="#F6CCAF"/>
<path d="M56.5 36C56.5 40 56.7533 41.3333 55.54 43.04C54.5141 43.7544 53.2698 44.0856 52.0245 43.976C50.7791 43.8663 49.6119 43.3227 48.7266 42.44C46.9266 40.6133 47.1666 38.7867 47.1666 36.4667C48.7 36.8933 51.1666 37.32 52.5 36C52.7588 35.7306 53.0693 35.5162 53.413 35.3698C53.7567 35.2234 54.1264 35.1479 54.5 35.1479C54.8735 35.1479 55.2433 35.2234 55.5869 35.3698C55.9306 35.5162 56.2412 35.7306 56.5 36Z" fill="#FFDEC7"/>
<path d="M56.4999 35.9998C56.2411 35.7304 55.9306 35.5161 55.5869 35.3697C55.2432 35.2233 54.8735 35.1478 54.4999 35.1478C54.1264 35.1478 53.7566 35.2233 53.413 35.3697C53.0693 35.5161 52.7587 35.7304 52.4999 35.9998C50.4999 37.9998 45.8333 35.9998 45.8333 35.9998C45.8333 34.5853 46.3952 33.2288 47.3954 32.2286C48.3955 31.2284 49.7521 30.6665 51.1666 30.6665C52.5811 30.6665 53.9376 31.2284 54.9378 32.2286C55.938 33.2288 56.4999 34.5853 56.4999 35.9998Z" fill="#374F68"/>
<path d="M56.4998 35.9998C56.2419 35.7287 55.9317 35.5129 55.5879 35.3654C55.2441 35.2179 54.8739 35.1418 54.4998 35.1418C54.1256 35.1418 53.7554 35.2179 53.4116 35.3654C53.0678 35.5129 52.7576 35.7287 52.4998 35.9998C51.9695 36.5015 51.2813 36.8031 50.5531 36.8532C49.3896 36.7301 48.2493 36.4428 47.1664 35.9998C47.1562 34.6936 47.6257 33.4291 48.4859 32.446C49.346 31.4629 50.5371 30.8297 51.8331 30.6665C53.1291 30.8297 54.3202 31.4629 55.1803 32.446C56.0405 33.4291 56.51 34.6936 56.4998 35.9998Z" fill="#425B72"/>
<path d="M37.8333 41.3331C37.5754 41.062 37.2652 40.8461 36.9214 40.6986C36.5776 40.5511 36.2074 40.4751 35.8333 40.4751C35.4591 40.4751 35.0889 40.5511 34.7451 40.6986C34.4013 40.8461 34.0911 41.062 33.8333 41.3331C33.303 41.8347 32.6148 42.1364 31.8866 42.1864C30.7231 42.0634 29.5828 41.7761 28.4999 41.3331C28.4897 40.0269 28.9592 38.7623 29.8193 37.7793C30.6795 36.7962 31.8706 36.163 33.1666 35.9998C34.4626 36.163 35.6536 36.7962 36.5138 37.7793C37.374 38.7623 37.8435 40.0269 37.8333 41.3331Z" fill="#425B72"/>
<path d="M19.1665 35.9998C18.9087 35.7287 18.5985 35.5129 18.2546 35.3654C17.9108 35.2179 17.5406 35.1418 17.1665 35.1418C16.7924 35.1418 16.4222 35.2179 16.0784 35.3654C15.7346 35.5129 15.4243 35.7287 15.1665 35.9998C14.6362 36.5015 13.9481 36.8031 13.2198 36.8532C12.0563 36.7301 10.9161 36.4428 9.83317 35.9998C9.82293 34.6936 10.2924 33.4291 11.1526 32.446C12.0128 31.4629 13.2038 30.8297 14.4998 30.6665C15.7959 30.8297 16.9869 31.4629 17.8471 32.446C18.7073 33.4291 19.1767 34.6936 19.1665 35.9998Z" fill="#425B72"/>
<path d="M45.8332 14.6666C45.8332 17.5515 44.8975 20.3586 43.1665 22.6666C35.4865 32.8933 19.1665 27.3866 19.1665 14.6666C19.1665 12.5967 19.6484 10.5552 20.5741 8.70374C21.4998 6.85234 22.8439 5.24189 24.4998 3.99993C26.4808 2.51423 28.8363 1.60951 31.3024 1.38713C33.7686 1.16476 36.2479 1.63352 38.4627 2.7409C40.6774 3.84827 42.5401 5.5505 43.8418 7.65684C45.1436 9.76319 45.8332 12.1904 45.8332 14.6666Z" fill="#DAD7E5"/>
<path d="M45.8333 14.6666C45.8333 17.5515 44.8976 20.3586 43.1666 22.6666C40.599 24.5923 37.4229 25.5272 34.2214 25.2997C31.02 25.0722 28.008 23.6975 25.7385 21.428C23.469 19.1585 22.0943 16.1466 21.8668 12.9451C21.6393 9.74365 22.5742 6.56755 24.4999 3.99993C26.4809 2.51423 28.8364 1.60951 31.3025 1.38713C33.7687 1.16476 36.248 1.63352 38.4628 2.7409C40.6775 3.84827 42.5402 5.5505 43.8419 7.65684C45.1437 9.76319 45.8333 12.1904 45.8333 14.6666Z" fill="#EDEBF2"/>
<path d="M39.1666 12H35.1666V8H29.8333V12H25.8333V17.3333H29.8333V21.3333H35.1666V17.3333H39.1666V12Z" fill="#F26674"/>
</svg>
