<svg width="65" height="64" viewBox="0 0 65 64" fill="none" xmlns="http://www.w3.org/2000/svg">
<g clip-path="url(#clip0_10_1409)">
<path d="M11.1968 60.9999V37.8801C11.1968 34.1421 14.227 31.1118 17.965 31.1118H25.7394C29.4774 31.1118 32.5077 34.1421 32.5077 37.8801L35.0077 51.5191L32.5077 60.9999H11.1968Z" fill="#E06A50"/>
<path d="M28.1072 25.2049C28.1072 28.6594 25.3067 31.4599 21.8522 31.4599C18.3977 31.4599 15.5972 28.6594 15.5972 25.2049V21.6605C15.5972 18.206 18.3977 15.4055 21.8522 15.4055C25.3067 15.4055 28.1072 18.206 28.1072 21.6605V25.2049Z" fill="#E3A76F"/>
<path d="M32.5 59.2501V37.8801C32.5 34.1421 35.5302 31.1118 39.2682 31.1118H47.0426C50.7806 31.1118 53.8109 34.1421 53.8109 37.8801V59.2501H32.5Z" fill="#9CD2FC"/>
<path d="M49.4104 25.2049C49.4104 28.6594 46.6099 31.4599 43.1554 31.4599C39.7009 31.4599 36.9004 28.6594 36.9004 25.2049V21.6605C36.9004 18.206 39.7009 15.4055 43.1554 15.4055C46.6099 15.4055 49.4104 18.206 49.4104 21.6605V25.2049Z" fill="#864927"/>
<path d="M21.8444 64H0.533447V56.519C0.533447 53.0673 3.3317 50.269 6.78345 50.269H15.5944C19.0462 50.269 21.8444 53.0673 21.8444 56.519L23.0944 60.0938L21.8444 64Z" fill="#A0BE28"/>
<path d="M64.4665 64H43.1555L41.9055 59.2813L43.1555 56.519C43.1555 53.0673 45.9538 50.269 49.4055 50.269H58.2165C61.6683 50.269 64.4665 53.0673 64.4665 56.519V64Z" fill="#738C28"/>
<path d="M15.906 4.69556L18.4823 1.96931L25.4376 8.54192L22.8613 11.2682L15.906 4.69556Z" fill="#FFE477"/>
<path d="M39.5818 8.55908L46.5371 1.98647L49.1133 4.71272L42.158 11.2853L39.5818 8.55908Z" fill="#FFB655"/>
<path d="M30.625 0H32.5V8.28475H30.625V0Z" fill="#FFE477"/>
<path d="M34.375 0H32.5L33.75 4.14237L32.5 8.28475H34.375V0Z" fill="#FFB655"/>
<path d="M32.5 0V8.28475L33.75 4.14237L32.5 0Z" fill="#FFB655"/>
<path d="M28.0945 50.269C24.6427 50.269 21.8445 53.0673 21.8445 56.519V64H32.5L33.75 56.4105L32.5 50.269H28.0945Z" fill="#FFB655"/>
<path d="M43.1555 56.519C43.1555 53.0673 40.3572 50.269 36.9055 50.269H32.5V64H43.1555V56.519Z" fill="#E06A50"/>
<path d="M30.625 0H32.5V8.28475H30.625V0Z" fill="#FFE477"/>
<path d="M34.375 0H32.5L33.75 4.14237L32.5 8.28475H34.375V0Z" fill="#FFB655"/>
<path d="M32.5 0V8.28475L33.75 4.14237L32.5 0Z" fill="#FFB655"/>
<path d="M17.4438 44.3621C17.4438 47.8166 14.6433 50.6171 11.1888 50.6171C7.73434 50.6171 4.93384 47.8166 4.93384 44.3621V40.8177C4.93384 37.3632 7.73434 34.5627 11.1888 34.5627C14.6433 34.5627 17.4438 37.3632 17.4438 40.8177V44.3621Z" fill="#B35F30"/>
<path d="M60.0659 44.3621C60.0659 47.8166 57.2654 50.6171 53.8109 50.6171C50.3564 50.6171 47.5559 47.8166 47.5559 44.3621V40.8177C47.5559 37.3632 50.3564 34.5627 53.8109 34.5627C57.2654 34.5627 60.0659 37.3632 60.0659 40.8177V44.3621Z" fill="#E3A76F"/>
<path d="M26.2449 40.8179V44.3622C26.2449 47.8167 29.0454 50.6172 32.4999 50.6172L34.9999 42.5901L32.4999 34.563C29.0454 34.5629 26.2449 37.3634 26.2449 40.8179Z" fill="#B35F30"/>
<path d="M32.5 34.5627V50.6171C35.9545 50.6171 38.755 47.8166 38.755 44.3621V40.8177C38.755 37.3632 35.9545 34.5627 32.5 34.5627Z" fill="#864927"/>
</g>
<defs>
<clipPath id="clip0_10_1409">
<rect width="64" height="64" fill="white" transform="translate(0.5)"/>
</clipPath>
</defs>
</svg>
