<svg width="36" height="36" viewBox="0 0 36 36" fill="none" xmlns="http://www.w3.org/2000/svg">
<g clip-path="url(#clip0_10_1456)">
<path d="M18 36C27.9411 36 36 27.9411 36 18C36 8.05888 27.9411 0 18 0C8.05888 0 0 8.05888 0 18C0 27.9411 8.05888 36 18 36Z" fill="#FF0000"/>
<path d="M20.4963 18.007L15.5037 20.9036V15.0962L20.4963 18.007Z" fill="url(#paint0_linear_10_1456)"/>
<path d="M35.6565 21.5099C34.962 24.9949 33.2525 28.1968 30.7429 30.7127C28.2334 33.2286 25.0358 34.9462 21.5525 35.6494L9.92358 24.0204C10.5508 24.5094 11.3239 24.7737 12.1191 24.7712H23.8996C24.8488 24.7687 25.7582 24.3897 26.4282 23.7175C27.0983 23.0452 27.4742 22.1346 27.4736 21.1854V14.8144C27.4764 13.8817 27.1143 12.9849 26.4646 12.3157L35.6565 21.5099Z" fill="url(#paint1_linear_10_1456)"/>
<path d="M23.8903 11.229H12.1098C11.639 11.229 11.1728 11.3218 10.7379 11.502C10.303 11.6822 9.90787 11.9464 9.57509 12.2794C9.24231 12.6124 8.9784 13.0077 8.79846 13.4427C8.61851 13.8778 8.52606 14.344 8.52637 14.8148V21.1858C8.52606 21.6566 8.61851 22.1229 8.79846 22.5579C8.9784 22.9929 9.24231 23.3882 9.57509 23.7212C9.90787 24.0542 10.303 24.3184 10.7379 24.4986C11.1728 24.6789 11.639 24.7716 12.1098 24.7716H23.8903C24.3611 24.7716 24.8273 24.6789 25.2622 24.4986C25.6971 24.3184 26.0922 24.0542 26.425 23.7212C26.7578 23.3882 27.0217 22.9929 27.2016 22.5579C27.3816 22.1229 27.474 21.6566 27.4737 21.1858V14.8148C27.474 14.344 27.3816 13.8778 27.2016 13.4427C27.0217 13.0077 26.7578 12.6124 26.425 12.2794C26.0922 11.9464 25.6971 11.6822 25.2622 11.502C24.8273 11.3218 24.3611 11.229 23.8903 11.229ZM15.5037 20.904V15.0966L20.4964 18.0003L15.5037 20.904Z" fill="white"/>
</g>
<defs>
<linearGradient id="paint0_linear_10_1456" x1="14.5729" y1="16.027" x2="18.5234" y2="19.9799" gradientUnits="userSpaceOnUse">
<stop stop-color="#B71C1C"/>
<stop offset="1" stop-color="#B71C1C" stop-opacity="0"/>
</linearGradient>
<linearGradient id="paint1_linear_10_1456" x1="16.9767" y1="16.9578" x2="30.7373" y2="30.7159" gradientUnits="userSpaceOnUse">
<stop stop-color="#B71C1C"/>
<stop offset="1" stop-color="#B71C1C" stop-opacity="0"/>
</linearGradient>
<clipPath id="clip0_10_1456">
<rect width="36" height="36" fill="white"/>
</clipPath>
</defs>
</svg>
